<?xml version="1.0" encoding="UTF-8" standalone="no"?>
<svg
   width="256"
   height="256"
   viewBox="0 0 256 256"
   fill="none"
   version="1.1"
   id="svg1"
   sodipodi:docname="Github-Dark.svg"
   inkscape:version="1.4.2 (f4327f4, 2025-05-13)"
   xml:space="preserve"
   xmlns:inkscape="http://www.inkscape.org/namespaces/inkscape"
   xmlns:sodipodi="http://sodipodi.sourceforge.net/DTD/sodipodi-0.dtd"
   xmlns="http://www.w3.org/2000/svg"
   xmlns:svg="http://www.w3.org/2000/svg"><defs
     id="defs1" /><sodipodi:namedview
     id="namedview1"
     pagecolor="#ffffff"
     bordercolor="#000000"
     borderopacity="0.25"
     inkscape:showpageshadow="2"
     inkscape:pageopacity="0.0"
     inkscape:pagecheckerboard="0"
     inkscape:deskcolor="#d1d1d1"
     showguides="false"
     inkscape:zoom="1.28"
     inkscape:cx="258.20313"
     inkscape:cy="60.546875"
     inkscape:window-width="1920"
     inkscape:window-height="1111"
     inkscape:window-x="-9"
     inkscape:window-y="-9"
     inkscape:window-maximized="1"
     inkscape:current-layer="svg1" /><rect
     width="256"
     height="256"
     rx="60"
     fill="#242938"
     id="rect1" /><g
     style="fill:none"
     id="g115"
     transform="matrix(0.20806885,0,0,0.20806885,-1003,-581.36904)"><path
       fill-rule="evenodd"
       clip-rule="evenodd"
       d="m 5435.9909,2939.4555 c -265.2637,0 -480.1152,214.8515 -480.1152,480.1152 0,212.4509 137.433,391.8939 328.2786,455.5092 24.0059,4.201 33.008,-10.2024 33.008,-22.8055 0,-11.4028 -0.6001,-49.2117 -0.6001,-89.4213 -120.629,22.2052 -151.8364,-29.4071 -161.4388,-56.4136 -5.4011,-13.8033 -28.8069,-56.4135 -49.2116,-67.8163 -16.8042,-9.0022 -40.8099,-31.2075 -0.6002,-31.8076 37.809,-0.6001 64.8155,34.8082 73.8176,49.2118 43.2105,72.6174 112.2269,52.2125 139.8336,39.6094 4.201,-31.2075 16.8039,-52.2125 30.6073,-64.2153 -106.8257,-12.0029 -218.4524,-53.4129 -218.4524,-237.0568 0,-52.2125 18.6046,-95.423 49.2118,-129.0309 -4.8011,-12.003 -21.6052,-61.2148 4.8012,-127.2307 0,0 40.2096,-12.6029 132.0316,49.2118 38.4092,-10.8025 79.219,-16.2039 120.0289,-16.2039 40.8098,0 81.6195,5.4014 120.0287,16.2039 91.8221,-62.4149 132.0317,-49.2118 132.0317,-49.2118 26.4064,66.0159 9.6023,115.2277 4.8012,127.2307 30.6073,33.6079 49.2118,76.2181 49.2118,129.0309 0,184.2442 -112.2269,225.0539 -219.0526,237.0568 17.4042,15.0036 32.4078,43.8106 32.4078,88.8213 0,64.2153 -0.6003,115.8277 -0.6003,132.0316 0,12.6031 9.0023,27.6067 33.008,22.8055 189.6455,-63.6153 327.0785,-243.6584 327.0785,-455.5092 0,-265.2637 -214.8515,-480.1152 -480.1151,-480.1152 z"
       fill="#1b1f23"
       id="path1-8"
       style="stroke-width:60.0144;fill:#ffffff" /></g></svg>
