<?xml version="1.0" encoding="UTF-8" standalone="no"?>
<svg
   width="256"
   height="256"
   viewBox="0 0 256 256"
   fill="none"
   version="1.1"
   id="svg1"
   sodipodi:docname="Github-Light.svg"
   xml:space="preserve"
   inkscape:version="1.4.2 (f4327f4, 2025-05-13)"
   xmlns:inkscape="http://www.inkscape.org/namespaces/inkscape"
   xmlns:sodipodi="http://sodipodi.sourceforge.net/DTD/sodipodi-0.dtd"
   xmlns="http://www.w3.org/2000/svg"
   xmlns:svg="http://www.w3.org/2000/svg"><defs
     id="defs1"><linearGradient
       id="swatch8"
       inkscape:swatch="solid"><stop
         style="stop-color:#000000;stop-opacity:1;"
         offset="0"
         id="stop8" /></linearGradient></defs><sodipodi:namedview
     id="namedview1"
     pagecolor="#ffffff"
     bordercolor="#000000"
     borderopacity="0.25"
     inkscape:showpageshadow="2"
     inkscape:pageopacity="0.0"
     inkscape:pagecheckerboard="0"
     inkscape:deskcolor="#d1d1d1"
     inkscape:zoom="2.8284271"
     inkscape:cx="127.98633"
     inkscape:cy="118.97072"
     inkscape:window-width="1920"
     inkscape:window-height="1111"
     inkscape:window-x="-9"
     inkscape:window-y="-9"
     inkscape:window-maximized="1"
     inkscape:current-layer="svg1" /><rect
     width="256"
     height="256"
     rx="60"
     fill="#f4f2ed"
     id="rect1-8"
     x="70"
     y="-131.5"
     transform="translate(-70,132.5)" /><path
     id="rect1"
     d="M 60,0 C 26.76,0 0,26.76 0,60 v 136 c 0,33.24 26.76,60 60,60 h 136 c 33.24,0 60,-26.76 60,-60 V 60 C 256,26.76 229.24,0 196,0 Z m 2.917969,170.34766 c 0.06042,3.1e-4 0.109564,0.0147 0.15039,0.041 0.001,1e-4 0.0029,-1e-4 0.0039,0 0.195882,0.0164 0.390887,0.0452 0.578125,0.10742 0.0821,0.0283 0.162617,0.057 0.242187,0.0918 l 0.002,0.002 c 0.0069,0.002 0.01268,0.004 0.01953,0.006 0.01447,0.006 0.02823,0.0119 0.04297,0.0176 0.134012,0.0117 0.267718,0.0347 0.400391,0.0586 0.164231,0.037 0.321259,0.0943 0.476562,0.1582 0.06457,0.0299 0.105929,0.0491 0.13086,0.0605 h 0.002 v 0.002 h 0.002 l 0.002,0.002 c 0.0027,0.001 0.006,0.001 0.0078,0.002 h 0.002 l 0.002,0.002 h 0.002 c 0.0048,0.002 0.0087,0.004 0.01172,0.006 l 0.002,0.002 H 65 c 0.102566,0.0447 0.0836,0.0419 0.333984,0.19141 0.07826,0.0704 0.162035,0.13649 0.234375,0.21289 0.173601,0.18347 0.286198,0.38395 0.361329,0.60351 0.08095,0.0396 0.159511,0.0823 0.236328,0.13086 0.04152,0.0263 0.08047,0.0544 0.121093,0.082 0.09419,0.0706 0.190913,0.13979 0.283203,0.21289 0.09983,0.0795 0.199499,0.16005 0.298829,0.24024 0.08351,0.0672 0.16235,0.13742 0.25,0.19922 0.09976,0.0793 0.223357,0.12806 0.332031,0.19336 0.09777,0.0515 0.195764,0.0957 0.300781,0.13086 0.143636,0.0524 0.287974,0.10586 0.427735,0.16796 0.027,0.0118 0.03283,0.0149 0.03906,0.0176 0.0019,8.1e-4 0.01119,0.006 0.01172,0.006 0.001,2.5e-4 0.0043,0.002 0.0059,0.002 h 0.002 c 2.23e-4,5e-5 0.0026,0.001 0.0039,0.002 h 0.002 c 0.0012,5e-4 0.0048,0.002 0.0059,0.002 v 0.002 c 0.104091,0.0318 0.189826,0.0609 0.302734,0.10352 0.0137,0.005 0.03494,0.0125 0.04883,0.0176 0.0054,0.002 0.0095,0.003 0.01172,0.004 h 0.002 c 0.188942,0.0454 0.373202,0.10289 0.548828,0.1875 0.225764,0.11097 0.433028,0.23139 0.621094,0.40039 -0.04682,-0.034 0.140231,0.12101 0.144532,0.125 0.02434,0.0223 0.04815,0.0459 0.07227,0.0684 h 0.002 v 0.002 c 0.05861,0.0576 0.07897,0.0747 0.113282,0.11133 0.0126,0.009 0.02481,0.0178 0.03711,0.0273 0.03848,0.0303 0.07489,0.0631 0.111328,0.0957 0.02382,0.0213 0.04525,0.0443 0.06836,0.0664 0.04744,0.0506 0.13364,0.12093 0.19336,0.17773 0.07376,0.0717 0.135672,0.12659 0.201172,0.20508 0.219561,0.26316 0.387346,0.56671 0.441406,0.91016 0.0087,0.1005 0.01939,0.20203 0.02539,0.30273 0.002,0.0334 -2.59e-4,0.0662 -0.002,0.0996 -0.01031,0.21181 -0.04684,0.42201 -0.115234,0.62305 -0.04662,0.12502 -0.06803,0.19707 -0.132813,0.31836 -0.151262,0.28321 -0.358063,0.52846 -0.61914,0.71679 -0.153521,0.0971 -0.255734,0.17423 -0.425781,0.23633 -0.40985,0.1496 -0.750108,0.1762 -1.175782,0.0547 -0.114798,-0.0328 -0.218358,-0.0936 -0.328125,-0.14063 -0.21472,-0.12999 -0.190736,-0.12683 -0.285156,-0.18554 -0.04367,-0.0307 -0.08888,-0.0588 -0.130859,-0.0918 -0.158926,-0.1251 -0.300299,-0.27384 -0.414063,-0.4414 v -0.002 l -0.002,-0.002 -0.002,-0.002 -0.002,-0.004 h -0.002 v -0.002 c -0.0018,-0.002 -0.0069,-0.009 -0.01172,-0.0156 v -0.002 h -0.002 c -0.0051,-0.007 -0.0099,-0.0124 -0.01953,-0.0254 -0.02825,-0.009 -0.08194,-0.0154 -0.0957,-0.0254 v -0.002 h -0.002 v -0.002 -0.002 -0.002 l 0.002,-0.002 0.002,-0.002 c 0.0076,-0.004 0.02474,-0.009 0.04687,-0.0137 -0.08959,-0.10653 -0.212373,-0.18445 -0.314454,-0.27735 -0.229827,-0.188 -0.48554,-0.33915 -0.734374,-0.5 -0.449945,-0.27408 -0.902228,-0.54392 -1.355469,-0.8125 -0.256276,-0.15186 -0.474338,-0.31413 -0.65625,-0.48242 -0.07102,0.018 -0.142201,0.0314 -0.214844,0.041 -0.119043,0.0155 -0.239357,0.008 -0.359375,0.0117 -0.379162,-0.0681 -0.378815,-0.0409 -0.691406,-0.17579 -0.176995,-0.0764 -0.339132,-0.18338 -0.501953,-0.28515 -0.0082,-0.005 -0.01386,-0.007 -0.01953,-0.01 0.002,0.002 0.0026,0.002 0.0039,0.004 -0.318334,-0.0739 -0.621423,-0.17872 -0.876954,-0.40039 -0.138869,-0.12046 -0.238443,-0.27977 -0.357421,-0.41992 -0.005,-0.0178 -0.01027,-0.0351 -0.01563,-0.0527 -0.194501,-0.2782 -0.28321,-0.50861 -0.330078,-0.86719 -0.01723,-0.13155 -0.01614,-0.26701 0.002,-0.39843 0.02183,-0.15863 0.07836,-0.31146 0.117187,-0.4668 0.08607,-0.14896 0.153188,-0.30874 0.257813,-0.44531 0.01028,-0.0134 0.02058,-0.028 0.03125,-0.041 0.0054,-0.0166 0.01149,-0.0325 0.01758,-0.0488 -0.372092,-0.23277 -0.397017,-0.51659 0.40039,-0.91406 0.299291,-0.1492 0.151186,-0.0886 0.439453,-0.1875 0.12051,-0.0286 0.242457,-0.0523 0.365235,-0.0664 0.09048,-0.034 0.167608,-0.0492 0.232422,-0.0488 z m 4.613281,6.89453 c 0.0036,0.004 0.0075,0.009 0.0098,0.0117 v 0.002 h 0.002 v -0.002 -0.002 -0.002 h -0.002 v -0.002 h -0.002 v -0.002 h -0.002 v -0.002 h -0.002 c -8.62e-4,-2.5e-4 -0.0031,-0.002 -0.0039,-0.002 z" /><path
     id="path1"
     style="fill:#000000;fill-opacity:1"
     d="M 128.00195,30 C 72.780086,30 28,74.771786 28,130.00195 c 0,44.183 28.653319,81.66568 68.386719,94.88867 4.997301,0.92601 6.832031,-2.16954 6.832031,-4.81054 0,-2.385 -0.0937,-10.26119 -0.13672,-18.61719 -27.819888,6.049 -33.689452,-11.79883 -33.689452,-11.79883 -4.549,-11.559 -11.103515,-14.63281 -11.103516,-14.63281 -9.073098,-6.207 0.683594,-6.07813 0.683594,-6.07813 10.0418,0.70501 15.330078,10.30469 15.330078,10.30469 8.9191,15.288 23.393154,10.8675 29.099606,8.3125 0.898,-6.464 3.48961,-10.87409 6.34961,-13.37109 -22.211464,-2.529 -45.560544,-11.10488 -45.560544,-49.42188 0,-10.918 3.905735,-19.83899 10.302735,-26.841793 -1.0383,-2.5187 -4.46125,-12.688591 0.96875,-26.462891 0,0 8.397745,-2.6881 27.507809,10.25 7.977,-2.2157 16.53225,-3.327134 25.03125,-3.365234 8.498,0.0381 17.05978,1.149534 25.05078,3.365234 19.087,-12.9381 27.47266,-10.25 27.47266,-10.25 5.443,13.7743 2.01947,23.944191 0.98047,26.462891 6.412,7.002803 10.29102,15.923793 10.29102,26.841793 0,38.409 -23.39411,46.8668 -45.66211,49.3418 3.587,3.104 6.7832,9.18953 6.7832,18.51953 0,13.38 -0.11524,24.14741 -0.11524,27.44141 0,2.661 1.80014,5.78083 6.86915,4.79883 C 199.38388,211.64091 228,174.16995 228,130.00195 228,74.771786 183.22795,30 128.00195,30 Z" /><path
     style="fill:none;fill-opacity:1;stroke-width:0.106357"
     d="m 77.871556,189.12703 c -0.915685,-0.29302 -1.924957,-1.69946 -1.778763,-2.47874 0.14205,-0.75719 1.043754,-1.10949 1.911617,-0.74687 0.491464,0.20534 1.205198,0.87141 1.451849,1.35489 0.223088,0.43729 0.269398,1.15486 0.0955,1.47979 -0.246479,0.46055 -0.950648,0.62439 -1.680205,0.39093 z"
     id="path8" /><path
     style="fill:none;fill-opacity:1;stroke-width:0.106357"
     d="m 77.871556,189.12703 c -0.915685,-0.29302 -1.924957,-1.69946 -1.778763,-2.47874 0.14205,-0.75719 1.043754,-1.10949 1.911617,-0.74687 0.491464,0.20534 1.205198,0.87141 1.451849,1.35489 0.223088,0.43729 0.269398,1.15486 0.0955,1.47979 -0.246479,0.46055 -0.950648,0.62439 -1.680205,0.39093 z"
     id="path9" /><path
     style="fill:none;fill-opacity:1;stroke-width:0.106357"
     d="m 77.871556,189.12703 c -0.915685,-0.29302 -1.924957,-1.69946 -1.778763,-2.47874 0.14205,-0.75719 1.043754,-1.10949 1.911617,-0.74687 0.491464,0.20534 1.205198,0.87141 1.451849,1.35489 0.223088,0.43729 0.269398,1.15486 0.0955,1.47979 -0.246479,0.46055 -0.950648,0.62439 -1.680205,0.39093 z"
     id="path10" /><path
     style="fill:none;fill-opacity:1;stroke-width:0.106357"
     d="m 77.871556,189.12703 c -0.915685,-0.29302 -1.924957,-1.69946 -1.778763,-2.47874 0.14205,-0.75719 1.043754,-1.10949 1.911617,-0.74687 0.491464,0.20534 1.205198,0.87141 1.451849,1.35489 0.223088,0.43729 0.269398,1.15486 0.0955,1.47979 -0.246479,0.46055 -0.950648,0.62439 -1.680205,0.39093 z"
     id="path11" /><path
     style="fill:none;fill-opacity:1;stroke-width:0.106357"
     d="m 77.871556,189.12703 c -0.915685,-0.29302 -1.924957,-1.69946 -1.778763,-2.47874 0.14205,-0.75719 1.043754,-1.10949 1.911617,-0.74687 0.491464,0.20534 1.205198,0.87141 1.451849,1.35489 0.223088,0.43729 0.269398,1.15486 0.0955,1.47979 -0.246479,0.46055 -0.950648,0.62439 -1.680205,0.39093 z"
     id="path12" /><path
     style="fill:none;fill-opacity:1;stroke-width:0.106357"
     d="m 72.657158,182.44771 c -0.841407,-0.337 -1.501788,-1.29272 -1.503436,-2.1758 -0.0012,-0.6415 0.187914,-0.94801 0.686416,-1.11253 0.482156,-0.15913 1.133889,0.11568 1.639152,0.69115 0.463314,0.52769 0.651425,0.98943 0.651425,1.599 0,0.84923 -0.68572,1.31373 -1.473557,0.99818 z"
     id="path13" /><path
     style="fill:none;fill-opacity:1;stroke-width:0.106357"
     d="m 72.657158,182.44771 c -0.841407,-0.337 -1.501788,-1.29272 -1.503436,-2.1758 -0.0012,-0.6415 0.187914,-0.94801 0.686416,-1.11253 0.482156,-0.15913 1.133889,0.11568 1.639152,0.69115 0.463314,0.52769 0.651425,0.98943 0.651425,1.599 0,0.84923 -0.68572,1.31373 -1.473557,0.99818 z"
     id="path14" /><path
     id="path15"
     style="fill:none;fill-opacity:1"
     d="m 65.011719,176.36328 c 0.01925,0.02 0.221184,0.22632 0.236328,0.25 0.06152,0.0961 0.11102,0.27774 0.152344,0.38086 0.110867,0.27668 0.04087,0.0216 0.109375,0.32813 0.0264,0.0768 0.10641,0.11971 0.142578,0.18945 0.02164,0.0417 0.0264,0.0896 0.04492,0.13281 0.01441,0.0336 0.04323,0.0624 0.05273,0.0977 0.02859,0.10615 0.03496,0.15133 0.0332,0.16601 v 0.002 h -0.002 v 0.002 h -0.002 -0.002 v -0.002 h -0.002 -0.002 c -0.0037,-0.004 -0.0076,-0.0104 -0.0098,-0.0137 0.0031,0.007 0.01483,0.0305 0.04297,0.0918 -8.44e-4,0.0624 0.14927,0.0818 0.173828,0.1211 l 0.002,0.002 c 0.01782,0.045 -0.0021,0.0966 0.0039,0.14453 0.0093,0.0738 0.03126,0.11123 0.06055,0.17578 0.07345,0.10502 0.05553,0.1651 0.06641,0.29297 0.0083,0.0975 0.04914,0.18927 0.08398,0.2793 0.0092,0.0262 0.02625,0.0525 0.0293,0.0801 0.0059,0.0532 -0.0059,0.10677 -0.002,0.16016 0.0092,0.12823 0.06663,0.2509 0.107422,0.37109 0.06233,0.25203 0.107556,0.50819 0.142578,0.76563 0.09694,0.38804 0.06581,0.7865 0.06445,1.18164 l 13.056641,6.6543 c -8.96e-4,-0.37616 -0.03603,-0.75916 0.06445,-1.12696 0.04008,-0.29168 0.101957,-0.58047 0.08203,-0.87695 -0.0025,-0.12699 -7.9e-4,-0.25584 -0.02734,-0.38086 -0.007,-0.0329 -0.01954,-0.0654 -0.0293,-0.0977 -0.01618,-0.017 -0.04261,-0.0281 -0.04883,-0.0508 -0.01167,-0.0425 -0.0014,-0.0888 -0.002,-0.13281 -0.0057,-0.10672 0.0026,-0.24512 -0.04883,-0.34375 -0.0085,-0.0163 -0.03385,-0.0271 -0.04492,-0.041 -0.0014,-0.002 -0.0013,-0.005 -0.002,-0.008 -0.02198,-0.0856 0.0235,-0.18014 -0.0059,-0.26562 -0.0082,-0.0669 -0.01154,-0.15789 -0.04492,-0.2207 -0.0108,-0.0203 -0.04114,-0.0313 -0.05078,-0.0508 -2.91e-4,-7.2e-4 -0.0017,-0.005 -0.002,-0.006 v -0.002 c -0.01584,-0.11873 0.06208,-0.32651 -0.01172,-0.46094 -0.01771,-0.0332 -0.03503,-0.0664 -0.05273,-0.0996 -0.02926,-0.0168 -0.06897,-0.0228 -0.08789,-0.0508 -0.02795,-0.0413 -0.0241,-0.0984 -0.04297,-0.14453 -0.01663,-0.0407 -0.04767,-0.0739 -0.0625,-0.11523 -0.02036,-0.0568 -0.02897,-0.1171 -0.04297,-0.17578 -0.01981,-0.0551 -0.03878,-0.11087 -0.05859,-0.16602 -0.08736,-0.0784 -0.106795,-0.0909 -0.115234,-0.10547 -0.0079,-0.0165 -0.01006,-0.0429 -0.07813,-0.16797 -0.02805,-0.0515 -0.06676,-0.0964 -0.09375,-0.14843 -0.08725,-0.16844 -0.09474,-0.34328 -0.11914,-0.52735 l -9.470703,-4.22265 c -0.0013,-3e-5 -0.0026,3e-5 -0.0039,0 -0.149928,-0.004 -0.303864,-0.0285 -0.470703,-0.0762 -0.114798,-0.0328 -0.218358,-0.0936 -0.328125,-0.14062 -0.21472,-0.13 -0.190736,-0.12685 -0.285156,-0.18555 -0.04367,-0.0307 -0.08888,-0.0588 -0.130859,-0.0918 -0.04006,-0.0315 -0.07952,-0.0651 -0.117188,-0.0996 z" /><g
     id="g52"><g
       id="g51"
       transform="translate(-70,132.5)" /></g></svg>
